<?xml version="1.0" encoding="UTF-8"?>
<svg xmlns="http://www.w3.org/2000/svg" version="1.1" viewBox="0 0 118.1 62.5">
  <!-- Generator: Adobe Illustrator 28.6.0, SVG Export Plug-In . SVG Version: 1.2.0 Build 709)  -->
  <g>
    <g id="Layer_2">
      <path d="M113.7,8.1c-8.3.2-10.6-.3-16.2-.4-3.7,0-1.2,2.5-4.6,2.6-4.7-.2-5.5-.9-6.8,1.6-.7,1.6-1.7,1-2,.9C72.2,6.9,61,2,57.8.4c-2.1-1.1-4.4.2-7.2.5-7,.6-9.3,1.2-12.2,1.2s-5.9.2-8.3,0c-2.1-.2-2,.3-2.7.4-1.3.1-1.2-.5-1.8-.3-4,1.4-6.5.5-9.9,1.1-2.7-.4-4.5.1-5.6,0-2.9-.5-6.4.6-8.4.4-1.5,0-1.5,0-1.6.3-.2.7-1.4,7.7,6.4,8.8,2.4.9,7.2.7,8.1,1.2,1.5.7,3.4,1.2,8.3,1.6,3.6.4,3.1-.7,5.2,0,4,1.3,6.5,1.7,8.2,1.8-1.3,3.2-6.8,7.8-5.9,11.6-2.2,1.6-5.5,6.5-1.8,10.1.9.8,2,1.4,5.6,1.5,4.9.3,3.8,2.7,9,4.9,2.8,1,2.9,2.5,6.9,4.7,1.1.6,4.8-1.4,4.6-3.8.7,1.4,6,1.8,7.9-3.5.2-1.1,11.3,5.6,21.8,1.1.4-.2,1.2-.2,1.3,1.3,0,0,.5,6.4,3.2,7.5,3,.8,5-.6,5.5,2.1,1.2,6.3,2,7.8,5.6,7.6,7.7-.3,12.9-.2,16.5,0h0c1.1,0,1.4-.8,1.4-1.6V10.3c0-2.4-1-2.3-4.3-2.2ZM1.9,5.4h0c0,0,.1-.2.2-.2l6.1-.6c1,.4.2,1.9-.7,2.1-1.7.3-5.8.9-5.6-1.3ZM32.3,37.4c-1.2-.3-3.1-.3-3.5-.9-.6-1.9,3.9-3.2,5.4-2.9,1.8.4,1.9.6,2.7,2.5.6,2.1-3.3,1.6-4.6,1.3ZM83.2,30.4c-12.3.8-8.4.8-17.3-.3-1.2-.2-1.6,0-2.1.3-2.2,1.1-3.2,3.1-8,2-3.6-.8-2.8-.6-4.9-.1-.9-.8-2.2-.2-2.8.3-1.1-.7-2-.6-3.7-.6-5.8-.1-4.3.5-6,.7-1.3.2-1.1-.8-3.5-1.2h0c-1-.2-1.4-.2-2.1,0-.8.1-1.3.2-1.6-.4-.8-1.9,7.6-4.9,11.3-4.3,2,.3,3.7,1.9,4.5.9,1-1.4,2.8.3,8.3-2,1.6-.6,5.8-2.7,7.2-4,1.1-1,3.8-2.5,5.4-2.3.9.1,1.8-.7,1-1.3-3.3-2.2-7.6,3.1-10,1.3-1.5-1.1.3-3.7.5-4.1.4-1,.2-1.8-.6-1.9-1.5,0-3.1,4.5-4.6,3.4-2.9-2.2-.1-4.1-1.5-5.2-.6-.4-.3.7-6.2,1.4-5,.6-8.4-.6-10-1.4-1.5-.8-2.3-.3-4.1.2-1.4.3-5.8.3-8-.6-.7.1-2.1.1-4.3.3-5.1,0-3.5-1.2-6.6-.7-5.5.9-10.1-1.4-10.7-1.8-.7-.5-.7-.9,0-.8.3,0,.4,0,.9.1,5.7.5,5.7-.7,6.8-2.6.8-1.4,2.6.1,11.4-.7,4.3-.4,3.3.3,4.6,1,1.7.3,1.5-2,6-1.5,14.2.4,12.2-1.5,23-1.7,3.8-.3,13.6,5.3,28.1,11.7,3.6,1.5,5,.6,5.3,7.2.2,5.8-1.5,8.1-5.7,8.9ZM98.4,49.1c-.4.8.6,2.3-6.3,1.8h0c-1.8,0-2-1.2-2.3-2.4-.4-1.7.9-8.7,1-17.6.1-8.9-.1-11.4-.6-16.2,0-1.2-1-2.6.6-2.7,5.3-.3,6.9-.7,7.7,3.4,1,4.9,1.1,23.7-.2,33.6Z"/>
    </g>
  </g>
</svg>