<?xml version="1.0" encoding="UTF-8"?>
<svg id="Layer_1" xmlns="http://www.w3.org/2000/svg" viewBox="0 0 91.6 91.64">
  <path d="M81.03,1.82l-30.79,30.79c-1.16,1.18-2.75,1.84-4.4,1.84s-3.23-.66-4.39-1.84L10.62,1.82C8.19-.61,4.25-.61,1.82,1.82s-2.43,6.36,0,8.79l30.79,30.79h0c1.18,1.16,1.84,2.74,1.84,4.39s-.66,3.23-1.84,4.39L1.82,81.03c-2.43,2.43-2.43,6.36,0,8.79s6.36,2.43,8.79,0l30.79-30.79h0c1.16-1.18,2.75-1.84,4.4-1.84s3.23.66,4.39,1.84l30.79,30.79c2.43,2.43,6.36,2.43,8.79,0,2.43-2.43,2.43-6.36,0-8.79l-30.79-30.79h0c-1.18-1.16-1.84-2.74-1.84-4.39s.66-3.23,1.84-4.39l30.79-30.79h0c2.43-2.43,2.43-6.36,0-8.79-2.43-2.43-6.36-2.43-8.79,0l.04-.04Z"/>
</svg>